# AST/ASF file generated using VICON BodyLanguage
# -----------------------------------------------
:version 1.10
:name VICON
:units
  mass 1.0
  length 0.45
  angle deg
:documentation
   .ast/.asf automatically generated from VICON data using
   VICON BodyBuilder and BodyLanguage model FoxedUp or BRILLIANT.MOD
:root
   order TX TY TZ RX RY RZ
   axis XYZ
   position 0 0 0  
   orientation 0 0 0 
:bonedata
  begin
     id 1 
     name lhipjoint
     direction 0.677091 -0.635792 0.370561 
     length 2.74323 
     axis 0 0 0  XYZ
  end
  begin
     id 2 
     name lfemur
     direction 0.34202 -0.939693 0  
     length 7.44995  
     axis 0 0 20  XYZ
    dof rx ry rz
    limits (-160.0 20.0)
           (-70.0 70.0)
           (-60.0 70.0)
  end
  begin
     id 3 
     name ltibia
     direction 0.34202 -0.939693 0   
     length 7.34467   
     axis 0 0 20   XYZ
    dof rx
    limits (-10.0 170.0)
  end
  begin
     id 4 
     name lfoot
     direction 0.101953 -0.280114 0.954537   
     length 1.72105   
     axis -90 7.62852e-016 20   XYZ
    dof rx rz
    limits (-45.0 90.0)
           (-70.0 20.0)
  end
  begin
     id 5 
     name ltoes
     direction 1.53537e-011 -4.21915e-011 1   
     length 0.865872   
     axis -90 7.62852e-016 20   XYZ
    dof rx
    limits (-90.0 20.0)
  end
  begin
     id 6 
     name rhipjoint
     direction -0.695735 -0.620586 0.361699   
     length 2.81045  
     axis 0 0 0  XYZ 
  end
  begin
     id 7 
     name rfemur
     direction -0.34202 -0.939693 0   
     length 7.29387   
     axis 0 0 -20   XYZ
    dof rx ry rz
    limits (-160.0 20.0)
           (-70.0 70.0)
           (-70.0 60.0)
  end
  begin
     id 8 
     name rtibia
     direction -0.34202 -0.939693 0   
     length 7.44935   
     axis 0 0 -20   XYZ
    dof rx
    limits (-10.0 170.0)
 end
 begin
     id 9 
     name rfoot
     direction -0.104163 -0.286184 0.952496   
     length 1.77731  
     axis -90 -7.62852e-016 -20   XYZ
    dof rx rz
    limits (-45.0 90.0)
           (-20.0 70.0)
  end
  begin
     id 10 
     name rtoes
     direction -1.5355e-011 -4.21888e-011 1   
     length 0.892424   
     axis -90 -7.62852e-016 -20   XYZ
    dof rx
    limits (-90.0 20.0)
  end
  begin
     id 11 
     name lowerback
     direction 0.0100202 0.997226 -0.0737589   
     length 2.16892   
     axis 0 0 0   XYZ
    dof rx ry rz
    limits (-20.0 45.0)
           (-30.0 30.0)
           (-30.0 30.0)
  end
  begin
     id 12 
     name upperback
     direction 0.00432398 0.999988 -0.00215019   
     length 2.17326   
     axis 0 0 0   XYZ
    dof rx ry rz
    limits (-20.0 45.0)
           (-30.0 30.0)
           (-30.0 30.0)
  end
  begin
     id 13 
     name thorax
     direction -0.00195047 0.999485 0.0320434   
     length 2.18139   
     axis 0 0 0   XYZ
    dof rx ry rz
    limits (-20.0 45.0)
           (-30.0 30.0)
           (-30.0 30.0)
  end
  begin
     id 14 
     name lowerneck
     direction 0.00782762 0.986241 0.165128   
     length 1.88415   
     axis 0 0 0   XYZ
    dof rx ry rz
    limits (-20.0 45.0)
           (-30.0 30.0)
           (-30.0 30.0)
  end
  begin
     id 15 
     name upperneck
     direction 0.00988667 0.981098 -0.193258   
     length 1.9242   
     axis 0 0 0   XYZ
    dof rx ry rz
    limits (-20.0 45.0)
           (-30.0 30.0)
           (-30.0 30.0)
  end
  begin
     id 16
     name head
     direction 0.00252199 0.996513 -0.0833958  
     length 1.93887  
     axis 0 0 0   XYZ
    dof rx ry rz
    limits (-20.0 45.0)
           (-30.0 30.0)
           (-30.0 30.0)
  end
  begin
     id 17 
     name lclavicle
     direction 0.929492 0.368193 -0.0218667  
     length 3.5955  
     axis 0 0 0   XYZ
    dof ry rz
    limits (-20.0 10.0)
           (0.0 20.0)
  end
  begin
     id 18 
     name lhumerus
     direction 1 -4.48972e-011 1.41911e-027   
     length 5.2795   
     axis 180 -30 -90   XYZ
    dof rx ry rz
    limits (-60.0 90.0)
           (-90.0 90.0)
           (-90.0 90.0)
  end
  begin
     id 19
     name lradius
     direction 1 -4.48963e-011 7.05772e-027   
     length 3.53504   
     axis 180 -30 -90   XYZ
    dof rx
    limits (-10.0 170.0)
  end
  begin
     id 20
     name lwrist
     direction 1 -4.48957e-011 9.54866e-027   
     length 1.76752   
     axis -7.69462e-015 90 90   XYZ
    dof ry
    limits (-180.0 0.0)
 end
  begin
     id 21 
     name lhand
     direction 1 -4.48979e-011 1.90973e-026   
     length 0.667948   
     axis -1.21857e-014 90 90   XYZ
    dof rx rz
    limits (-90.0 90.0)
           (-45.0 45.0)
  end
  begin
     id 22 
     name lfingers
     direction 1 -4.48987e-011 3.81946e-026   
     length 0.538517   
     axis -2.43714e-014 90 90   XYZ
    dof rx
    limits (0.0 90.0)
  end
  begin
     id 23
     name lthumb
     direction 0.707107 -6.34962e-011 0.707107   
     length 0.773206   
     axis -90 45 2.85299e-015   XYZ
    dof rx rz
    limits (-45.0 45.0)
           (-45.0 45.0)
  end
  begin
     id 24 
     name rclavicle
     direction -0.898763 0.414256 -0.143584   
     length 3.5176  
     axis 0 0 0   XYZ 
    dof ry rz
    limits (-10.0 20.0)
           (-20.0 0.0)
  end
  begin
     id 25 
     name rhumerus
     direction -1 -4.48971e-011 1.129e-027  
     length 5.25035   
     axis 180 30 90   XYZ
    dof rx ry rz
    limits (-90.0 60.0)
           (-90.0 90.0)
           (-90.0 90.0)
  end
  begin
     id 26 
     name rradius
     direction -1 -4.48955e-011 6.34664e-027   
     length 3.58884   
     axis 180 30 90   XYZ
    dof rx
    limits (-10.0 170.0)
  end
  begin
     id 27 
     name rwrist
     direction -1 -4.48966e-011 9.54866e-027   
     length 1.79442   
     axis -7.69462e-015 -90 -90   XYZ
    dof ry
    limits (-180.0 0.0)
  end
  begin
     id 28
     name rhand
     direction -1 -4.48973e-011 1.90973e-026   
     length 0.779235   
     axis -1.21857e-014 -90 -90   XYZ
    dof rx rz
    limits (-90.0 90.0)
           (-45.0 45.0)
  end
  begin
     id 29
     name rfingers
     direction -1 -4.48984e-011 3.81946e-026   
     length 0.62824   
     axis -2.43714e-014 -90 -90   XYZ
    dof rx
    limits (0.0 90.0)
  end
  begin
     id 30
     name rthumb
     direction -0.707107 -6.34968e-011 0.707107   
     length 0.90203   
     axis -90 -45 -2.85299e-015   XYZ
    dof rx rz
    limits (-45.0 45.0)
           (-45.0 45.0)
  end
:hierarchy
  begin
    root lhipjoint rhipjoint lowerback
    lhipjoint lfemur
    lfemur ltibia
    ltibia lfoot
    lfoot ltoes
    rhipjoint rfemur
    rfemur rtibia
    rtibia rfoot
    rfoot rtoes
    lowerback upperback
    upperback thorax
    thorax lowerneck lclavicle rclavicle
    lowerneck upperneck
    upperneck head
    lclavicle lhumerus
    lhumerus lradius
    lradius lwrist
    lwrist lhand lthumb
    lhand lfingers
    rclavicle rhumerus
    rhumerus rradius
    rradius rwrist
    rwrist rhand rthumb
    rhand rfingers
  end

#!OML:ASF I:\Random Stuff\random\construction\7_22_03\Session 2\subj1.ASF
:FULLY-SPECIFIED
:DEGREES
324
root 5.12733 17.7097 0.563114 335.492 88.283 330.342
lowerback -3.93906 0.276541 -0.415716
upperback -2.80393 0.42919 0.526612
thorax -0.674838 0.245192 0.786343
lowerneck -23.1566 -0.375658 1.71287
upperneck 43.994 -1.36739 3.8818
head 22.1184 0.996433 1.70688
rclavicle -1.28783e-015 1.86361e-016
rhumerus 9.18839 37.7336 -71.691
rradius 102.045
rwrist -35.2736
rhand 1.80258 -1.48523
rfingers 7.12502
rthumb 27.3158 -29.5263
lclavicle -1.28783e-015 1.86361e-016
lhumerus -4.10187 -29.6183 86.369
lradius 103.41
lwrist 9.8539
lhand -24.0825 44.6646
lfingers 7.12502
lthumb 2.39773 794.631
rfemur -2.25907 13.3411 21.9803
rtibia 11.2304
rfoot -8.67795 -33.2923
rtoes -4.52105
lfemur -9.93804 -22.0276 -15.2372
ltibia 18.9496
lfoot -13.4559 25.0066
ltoes -26.5754
325
root 5.1207 17.7099 0.563673 335.483 88.216 330.376
lowerback -3.80361 0.248166 -0.346859
upperback -2.8141 0.388865 0.5482
thorax -0.759862 0.22434 0.767689
lowerneck -23.5202 -0.358486 1.53169
upperneck 43.8745 -1.33902 4.01202
head 22.6166 0.990377 1.82308
rclavicle -4.26455e-015 -9.93923e-017
rhumerus 9.17219 37.6239 -71.9408
rradius 101.638
rwrist -35.4561
rhand 3.31121 -1.49806
rfingers 7.12502
rthumb 28.7579 -29.3032
lclavicle -4.26455e-015 -9.93923e-017
lhumerus -4.03712 -29.3721 86.27
lradius 103.35
lwrist 10.7446
lhand -24.0814 44.9693
lfingers 7.12502
lthumb 2.39872 794.936
rfemur -2.26328 13.3839 22.033
rtibia 11.2833
rfoot -8.56048 -33.2972
rtoes -4.83991
lfemur -9.87367 -22.0157 -15.2113
ltibia 18.9116
lfoot -13.4937 25.0147
ltoes -26.442
326
root 5.11277 17.7116 0.564002 336.028 88.2139 330.951
lowerback -3.67182 0.198482 -0.395849
upperback -2.8279 0.323984 0.624267
thorax -0.847322 0.193489 0.870426
lowerneck -23.5781 -0.314866 1.4289
upperneck 43.8656 -1.22849 4.02154
head 22.6273 1.01054 1.87599
rclavicle -4.23815e-015 -1.88845e-015
rhumerus 9.02784 37.5396 -72.1718
rradius 101.244
rwrist -35.7207
rhand 4.82756 -1.54638
rfingers 7.12502
rthumb 30.2055 -29.0962
lclavicle -4.23815e-015 -1.88845e-015
lhumerus -3.93203 -29.1708 86.1625
lradius 103.242
lwrist 12.4
lhand -24.0265 45.436
lfingers 7.12502
lthumb 2.45179 795.402
rfemur -2.28386 13.2996 22.0363
rtibia 11.3394
rfoot -8.33851 -33.2558
rtoes -5.6813
lfemur -9.84558 -21.9313 -15.2241
ltibia 18.8776
lfoot -13.4803 24.911
ltoes -26.1432
327
root 5.10631 17.7109 0.561409 337.5 88.1951 332.453
lowerback -3.52711 0.173407 -0.802415
upperback -2.87062 0.303696 0.962865
thorax -0.976133 0.193996 1.44434
lowerneck -23.7233 -0.397659 0.83514
upperneck 43.9832 -1.06158 4.0272
head 22.781 0.965228 2.04883
rclavicle 4.1869e-015 7.55382e-015
rhumerus 8.66023 37.5605 -72.0785
rradius 100.888
rwrist -36.0709
rhand 6.51016 -1.32957
rfingers 7.12502
rthumb 31.8093 -28.5736
lclavicle 4.1869e-015 7.55382e-015
lhumerus -3.89718 -28.9123 86.5187
lradius 103.011
lwrist 14.1088
lhand -23.7919 46.0863
lfingers 7.12502
lthumb 2.67831 796.049
rfemur -2.31701 13.269 21.9928
rtibia 11.4107
rfoot -8.33579 -33.2175
rtoes -5.91777
lfemur -9.80827 -21.9963 -15.2754
ltibia 18.8367
lfoot -13.4349 25.0096
ltoes -26.0571
328
root 5.10138 17.7102 0.557101 338.885 88.1393 333.858
lowerback -3.41603 0.170926 -0.972645
upperback -2.9098 0.30647 1.15165
thorax -1.08088 0.201381 1.73314
lowerneck -23.1354 -0.284238 1.34465
upperneck 43.9223 -0.811293 3.37645
head 22.0241 1.05308 1.62802
rclavicle -1.19271e-015 4.37326e-015
rhumerus 8.11877 37.5625 -72.2932
rradius 100.476
rwrist -36.4655
rhand 7.99339 -0.536064
rfingers 7.12502
rthumb 33.2207 -27.4894
lclavicle -1.19271e-015 4.37326e-015
lhumerus -3.83268 -28.842 86.6591
lradius 102.684
lwrist 15.7881
lhand -23.6719 46.6979
lfingers 7.12502
lthumb 2.79424 796.659
rfemur -2.36769 13.2247 21.9449
rtibia 11.482
rfoot -8.3567 -33.1138
rtoes -5.82708
lfemur -9.76975 -22.1682 -15.3186
ltibia 18.7969
lfoot -13.4106 25.2341
ltoes -26.1257
329
root 5.0955 17.7112 0.553885 339.915 88.1354 334.887
lowerback -3.3339 0.140947 -0.978484
upperback -2.92704 0.266916 1.20186
thorax -1.14335 0.182863 1.78666
lowerneck -23.1382 -0.202976 1.40624
upperneck 43.9385 -0.653549 3.26311
head 22.0303 1.1052 1.59512
rclavicle 1.55301e-016 4.57205e-015
rhumerus 7.52459 37.6833 -72.7383
rradius 99.9996
rwrist -36.613
rhand 8.32321 1.00407
rfingers 7.12502
rthumb 33.5343 -25.8819
lclavicle 1.55301e-016 4.57205e-015
lhumerus -3.7269 -28.9355 86.4812
lradius 102.446
lwrist 17.6749
lhand -23.8428 47.1746
lfingers 7.12502
lthumb 2.62913 797.138
rfemur -2.41876 13.1811 21.8866
rtibia 11.5285
rfoot -8.46756 -33.0503
rtoes -5.29779
lfemur -9.77464 -22.3248 -15.3553
ltibia 18.7747
lfoot -13.4401 25.3765
ltoes -26.0852
330
root 5.08777 17.7116 0.550632 339.909 88.1758 334.862
lowerback -3.27484 0.099714 -0.897312
upperback -2.90942 0.209471 1.22494
thorax -1.15578 0.152743 1.76332
lowerneck -23.1446 -0.0533424 1.72748
upperneck 43.8388 -0.403733 2.88836
head 21.9439 1.19313 1.38902
rclavicle 3.53464e-015 -5.1684e-015
rhumerus 6.87677 37.9526 -73.222
rradius 99.4955
rwrist -36.1381
rhand 6.90976 3.16514
rfingers 7.12502
rthumb 32.1898 -24.0026
lclavicle 3.53464e-015 -5.1684e-015
lhumerus -3.57522 -29.0558 86.1707
lradius 102.422
lwrist 19.5358
lhand -23.8162 47.7549
lfingers 7.12502
lthumb 2.65482 797.718
rfemur -2.48738 13.1979 21.8444
rtibia 11.5743
rfoot -8.74854 -33.0913
rtoes -4.51363
lfemur -9.82021 -22.4824 -15.3562
ltibia 18.746
lfoot -13.5038 25.4662
ltoes -25.9365
